# xmcd
#
# Track frame offsets: 
#        150
#        20983
#        40018
#        62581
#        82821
#        105422
#        126482
#        146400
#        166727
#        186817
#        203155
#        222297
#        247724
#        267679
#
# Disc length: 3852 seconds
#
# Revision: 0
# Processed by: cddbd v1.5.2PL0 Copyright (c) Steve Scherf et al.
# Submitted via: ExactAudioCopy v0.95b4
#
DISCID=c00f0a0e
DTITLE=Mr Timaya - Gift and Grace
DYEAR=2008
DGENRE=Hip-Hop
TTITLE0=I Don Blow ft Shayo Pisanta
TTITLE1=Hey
TTITLE2=God I Beg
TTITLE3=Dem Mama Anthem (Cutlass)feat 2 Solo and recoba
TTITLE4=Kai Kai Love
TTITLE5=If To Say
TTITLE6=Chinekemeh
TTITLE7=God You Are 2 Much
TTITLE8=Iyawo Mi
TTITLE9=Yankulu Ya (Dem Mama remix)
TTITLE10=No Mistake
TTITLE11=Ogologoma (Remix)
TTITLE12=Rap Timaya
TTITLE13=God You Are 2 Much (Reloaded) - (Bonus Track)
EXTD=
EXTT0=
EXTT1=
EXTT2=
EXTT3=
EXTT4=
EXTT5=
EXTT6=
EXTT7=
EXTT8=
EXTT9=
EXTT10=
EXTT11=
EXTT12=
EXTT13=
PLAYORDER=
